<?xml version="1.0" encoding="UTF-8"?>
<svg version="1.1" xmlns="http://www.w3.org/2000/svg" width="1183" height="1183">
<path d="M0 0 C1.50836929 0.00273422 1.50836929 0.00273422 3.04721069 0.00552368 C18.67788789 0.05309268 33.9415251 0.63489137 49.375 3.3125 C50.39142578 3.48410645 51.40785156 3.65571289 52.45507812 3.83251953 C92.42222258 10.75562087 130.98079467 24.67363678 165.375 46.3125 C166.37917969 46.94285156 167.38335938 47.57320313 168.41796875 48.22265625 C180.83231869 56.2877029 193.30401692 64.96770629 204.07421875 75.15234375 C206.01924261 76.9784867 208.00102581 78.7186221 210.0234375 80.45703125 C222.07849009 90.96861132 233.72653662 102.5367262 243.375 115.3125 C244.38242664 116.5937769 245.3917006 117.87360244 246.40234375 119.15234375 C254.00216251 128.83585709 260.96940854 138.80056603 267.375 149.3125 C267.75043945 149.92818848 268.12587891 150.54387695 268.51269531 151.17822266 C310.61997084 221.17448741 323.43778722 307.14338904 304.00170898 386.43896484 C290.86916956 437.90857214 266.27469499 484.45085891 230.07421875 523.390625 C227.57012409 526.10128029 225.12573155 528.8552361 222.6875 531.625 C219.48015545 535.19565438 216.16409981 538.41387915 212.4921875 541.5 C211.00469839 542.77342242 209.55405368 544.09053971 208.1328125 545.4375 C151.08682378 599.46236159 68.99900868 626.1181164 -8.60693359 624.21484375 C-52.74203754 622.52005576 -95.85595854 612.76299507 -135.625 593.3125 C-136.51719238 592.88130859 -137.40938477 592.45011719 -138.32861328 592.00585938 C-158.77925747 582.03550172 -178.02091927 569.74402959 -195.625 555.3125 C-196.61757813 554.52230469 -197.61015625 553.73210938 -198.6328125 552.91796875 C-207.06343266 546.05637708 -214.74002247 538.40880168 -222.4375 530.75 C-222.97338745 530.21937958 -223.5092749 529.68875916 -224.06140137 529.14205933 C-231.05116545 522.20542644 -237.55347254 515.08494073 -243.625 507.3125 C-244.43819702 506.28032349 -244.43819702 506.28032349 -245.26782227 505.22729492 C-296.77272457 439.15534954 -319.08100877 355.81980172 -309.59765625 272.71875 C-302.57878421 216.85810969 -280.52372464 163.53077043 -245.625 119.3125 C-244.92375 118.41917969 -244.2225 117.52585937 -243.5 116.60546875 C-229.77222121 99.47025915 -214.08450674 82.65287378 -196.625 69.3125 C-195.34036643 68.30046772 -194.0565783 67.28736177 -192.7734375 66.2734375 C-183.08986758 58.67762004 -173.13744013 51.71166978 -162.625 45.3125 C-161.43463135 44.58764404 -161.43463135 44.58764404 -160.22021484 43.84814453 C-111.59505525 14.54335625 -56.65552054 -0.21447293 0 0 Z " fill="#13B5EA" transform="translate(590.625,279.6875)"/>
<path d="M0 0 C14.91243857 11.99336835 26.84928296 28.49594844 29 48 C29.7331651 58.93061553 29.705119 69.57466515 26 80 C25.50693359 81.45212891 25.50693359 81.45212891 25.00390625 82.93359375 C18.02808419 101.49555625 4.32273091 115.42435146 -13.58203125 123.64453125 C-28.67650865 129.63056971 -48.81620703 131.16580401 -64.2265625 125.2578125 C-65.14179687 124.84273437 -66.05703125 124.42765625 -67 124 C-68.52753906 123.34644531 -68.52753906 123.34644531 -70.0859375 122.6796875 C-85.75817193 115.45545853 -99.55092898 102.31682672 -105.76660156 85.98583984 C-112.2926163 67.22892134 -113.83587042 47.12904994 -105.33447266 28.69360352 C-96.67829189 11.17238526 -82.83704969 -2.33375365 -64.4609375 -9.3515625 C-42.62067825 -16.33040396 -18.71616177 -13.97046833 0 0 Z " fill="#FCFEFE" transform="translate(805,532)"/>
<path d="M0 0 C12.51498127 11.05046218 22.36902204 26.73599367 23.8984375 43.64453125 C24.11326386 48.62685033 23.5693397 52.08580178 20.6875 56.3125 C13.84573092 62.85680086 8.65393972 63.60796037 -0.42700195 63.53955078 C-1.94965416 63.53998886 -1.94965416 63.53998886 -3.50306702 63.54043579 C-6.85239258 63.53904443 -10.20149463 63.52349211 -13.55078125 63.5078125 C-15.87533954 63.50408169 -18.19989941 63.50123504 -20.52445984 63.49923706 C-26.63844149 63.491606 -32.75232791 63.47196193 -38.86627197 63.4498291 C-45.10679842 63.42935939 -51.34734027 63.42023293 -57.58789062 63.41015625 C-69.82946889 63.38871563 -82.07097652 63.35458595 -94.3125 63.3125 C-93.54205675 65.37010341 -92.76626541 67.42570472 -91.98828125 69.48046875 C-91.55684814 70.62539795 -91.12541504 71.77032715 -90.6809082 72.94995117 C-85.27016027 86.24562134 -76.36491722 95.31758662 -63.3125 101.3125 C-50.34752605 105.62905567 -37.97382243 105.56915741 -25.38671875 100.0234375 C-16.57822309 95.46689894 -10.05481183 89.49975007 -3.7578125 81.9140625 C-1.56382983 79.48289252 -0.37346229 79.31953411 2.9375 78.9375 C7.88022958 79.43177296 9.22578301 80.85078301 12.6875 84.3125 C14.29495059 87.52740118 14.09055242 89.7426071 13.6875 93.3125 C12.02968139 96.27881115 9.90343405 98.74771602 7.6875 101.3125 C7.15769531 101.98539063 6.62789062 102.65828125 6.08203125 103.3515625 C-4.37335419 116.21590849 -19.80586048 122.76485121 -35.6875 126 C-55.82402106 127.73590699 -73.94970876 122.76159992 -89.91015625 110.28125 C-99.5506032 102.05632463 -106.92240984 92.22384758 -111.3125 80.3125 C-111.704375 79.27867187 -112.09625 78.24484375 -112.5 77.1796875 C-118.37953518 59.58191206 -116.39935872 39.84563339 -108.3125 23.3125 C-99.03699632 5.19291142 -83.47385366 -7.29012992 -64.3125 -13.6875 C-42.31160589 -20.5167017 -17.67074568 -13.91766696 0 0 Z " fill="#FBFDFE" transform="translate(601.3125,535.6875)"/>
<path d="M0 0 C11.37673028 8.01995978 19.30979388 18.21359727 22.09765625 32.08203125 C24.15271161 47.54061434 20.8224541 60.60453327 11.66796875 73.171875 C4.74728775 81.53909178 -4.05677637 87.0251355 -14.55078125 89.7265625 C-15.12957031 89.90832031 -15.70835937 90.09007812 -16.3046875 90.27734375 C-28.83472569 92.78335139 -41.61912193 90.71337853 -52.36328125 83.8515625 C-53.77260222 82.82821772 -55.16939706 81.78731593 -56.55078125 80.7265625 C-57.16566406 80.28699219 -57.78054688 79.84742188 -58.4140625 79.39453125 C-67.31589351 72.54545063 -73.45220772 60.69013821 -75.55078125 49.7265625 C-76.65254948 33.68770691 -73.20790978 19.66909652 -62.3671875 7.21875 C-45.37010895 -9.24804203 -20.14771 -12.84139758 0 0 Z " fill="#14B5EA" transform="translate(790.55078125,548.2734375)"/>
<path d="M0 0 C7.1451099 5.03900752 13.12680549 11.99700847 19.28125 18.18359375 C20.34576772 19.24998085 21.41050962 20.31614419 22.47546387 21.38209534 C25.25263833 24.16305407 28.02679425 26.94700444 30.80029297 29.73162842 C33.64105638 32.5826948 36.48471872 35.43086669 39.328125 38.27929688 C44.8882283 43.85006518 50.44514018 49.42400319 56 55 C61.86605938 50.17125963 67.22279648 44.89660634 72.56838417 39.50678062 C74.1423011 37.919961 75.71944292 36.3364088 77.29740906 34.75361633 C80.63861396 31.40106611 83.97583158 28.04456443 87.3125 24.6875 C91.19853894 20.7778428 95.08620426 16.86983129 98.97807884 12.96598244 C100.53230784 11.40526923 102.08349898 9.841579 103.63459778 8.27775574 C104.58217906 7.32654402 105.52989985 6.37547125 106.4777832 5.42456055 C107.30494339 4.59216354 108.13210358 3.75976654 108.98432922 2.90214539 C111.41043213 0.61268398 112.43037093 0.06473058 115.75 -0.3125 C119.80901885 0.07779027 121.83301684 1.49587378 125 4 C126.79684757 7.59369514 126.678421 11.09279758 126 15 C124.7989502 16.84979248 124.7989502 16.84979248 123.14257812 18.63574219 C122.50392822 19.32631714 121.86527832 20.01689209 121.20727539 20.72839355 C117.42628132 24.61958472 113.58931571 28.4491307 109.71031189 32.24259186 C107.65901662 34.25121432 105.61755261 36.26971375 103.57532501 38.28754807 C99.78933928 42.02802658 95.99926148 45.76415345 92.19335938 49.484375 C89.52912187 52.08937661 86.87712851 54.706298 84.23292542 57.33162689 C83.22625159 58.32654826 82.21505538 59.31691521 81.19932556 60.30258942 C79.78756003 61.67354367 78.39235119 63.06148622 76.99804688 64.45019531 C76.19975464 65.23436829 75.4014624 66.01854126 74.57897949 66.82647705 C72.8016749 68.82425164 72.8016749 68.82425164 73.00326538 71.01721191 C74.29638085 73.58958564 75.89805209 75.24957139 77.94970703 77.27441406 C79.20704147 78.52656708 79.20704147 78.52656708 80.48977661 79.80401611 C81.40322845 80.69884705 82.3166803 81.59367798 83.2578125 82.515625 C84.68900238 83.93670236 86.12018979 85.35778222 87.55123711 86.77900314 C89.56089787 88.77111715 91.57737492 90.75626407 93.59381104 92.74151611 C97.58142222 96.66999741 101.55668265 100.6109593 105.53097153 104.55290985 C106.91001872 105.91818372 108.29322913 107.27924833 109.67654419 108.64019775 C114.17624952 113.08867335 118.52180079 117.5910797 122.62692261 122.40789795 C123.69964697 123.65173655 124.83856295 124.83856295 126 126 C126.77200992 130.56922148 126.59362988 134.05019219 124.125 138 C120.97500466 140.9647015 118.55722764 141.5329413 114.19261169 141.46705627 C111.47742033 140.88868338 110.32517089 139.903619 108.29321289 138.02709961 C107.59865997 137.38892303 106.90410706 136.75074646 106.18850708 136.0932312 C102.3914976 132.46152318 98.64413045 128.7864526 94.93359375 125.06640625 C94.09586929 124.22963852 93.25814484 123.39287079 92.39503479 122.53074646 C90.63493065 120.77131896 88.87607323 119.01064347 87.1184082 117.2487793 C84.44529028 114.57030589 81.76687749 111.89721127 79.08789062 109.22460938 C77.36947097 107.50552885 75.65136158 105.78613811 73.93359375 104.06640625 C73.14174179 103.27657852 72.34988983 102.48675079 71.53404236 101.67298889 C66.82281266 96.94207548 62.3255674 92.08636058 58 87 C54.18387425 88.57593668 51.78465455 90.97998909 48.89599609 93.89282227 C48.40119247 94.38894012 47.90638885 94.88505798 47.39659119 95.39620972 C45.76755392 97.03172088 44.14560891 98.67408755 42.5234375 100.31640625 C41.39102342 101.45509249 40.25809148 102.59326394 39.12466431 103.73094177 C36.14558861 106.72330708 33.17213492 109.7211917 30.20025635 112.72070312 C25.43752096 117.52659856 20.66801435 122.32575124 15.89528275 127.12171745 C14.22770686 128.79953391 12.56357496 130.48071181 10.89974976 132.1622467 C9.88168634 133.18713603 8.86351399 134.21191716 7.84521484 135.23657227 C6.95571136 136.13432877 6.06620789 137.03208527 5.14974976 137.95704651 C1.86620517 141.07746964 -0.42598814 141.33419556 -4.9609375 141.29296875 C-8.13134567 140.83745033 -9.8192402 139.24684343 -12 137 C-13.65263626 133.69472748 -13.7573431 130.54610127 -13 127 C-11.71875 125.12158203 -11.71875 125.12158203 -10 123.2578125 C-9.36384766 122.56510254 -8.72769531 121.87239258 -8.07226562 121.15869141 C-3.898198 116.81054038 0.38362231 112.57851763 4.68359375 108.35546875 C8.00696186 105.06815888 11.24822825 101.77399874 14.28515625 98.21875 C19.19118603 92.51635065 24.60026852 87.2935984 29.9375 82 C31.01390654 80.92862113 32.09008014 79.85700818 33.16601562 78.78515625 C35.77466745 76.18740362 38.38644471 73.59282038 41 71 C36.2235651 65.2035214 31.02071469 59.90085122 25.69197655 54.61681175 C24.13875937 53.07650211 22.58881434 51.53296379 21.03962708 49.98860168 C17.75840772 46.71872498 14.47323557 43.45283771 11.1875 40.1875 C7.36044778 36.38406813 3.5350433 32.57900826 -0.28619957 28.76973915 C-1.81367392 27.24874816 -3.34412494 25.73079602 -4.87471008 24.2129364 C-5.79624374 23.29470596 -6.7177774 22.37647552 -7.66723633 21.43041992 C-8.48186844 20.62102463 -9.29650055 19.81162933 -10.13581848 18.97770691 C-13.35367369 15.56388995 -13.38861932 12.80189908 -13.359375 8.26171875 C-12.78943134 4.67479071 -10.79773951 3.13161106 -8 1 C-4.98221063 -0.50889469 -3.37677363 -0.50026276 0 0 Z " fill="#FCFEFE" transform="translate(362,520)"/>
<path d="M0 0 C2.45503416 1.79151142 3.28312335 2.68617358 4.16796875 5.58203125 C4.61867972 9.7135485 4.63432001 11.83253816 2.41796875 15.39453125 C-1.23002327 18.94119016 -3.98666644 19.76820804 -9.01953125 19.95703125 C-15.65194976 20.46244282 -20.7981476 22.42637708 -26.20703125 26.26953125 C-30.59675877 32.51645118 -31.27020327 39.61636169 -31.20092773 47.0456543 C-31.20469421 47.94441284 -31.20846069 48.84317139 -31.21234131 49.76916504 C-31.2187354 51.7039098 -31.21848013 53.63868602 -31.2121563 55.57343102 C-31.2029919 58.63826197 -31.21332911 61.70248828 -31.22877502 64.76728821 C-31.26873886 73.47481445 -31.27007254 82.18228981 -31.26782227 90.88989258 C-31.26777116 96.23016432 -31.28693397 101.57010646 -31.31715584 106.91028786 C-31.3279681 109.92500301 -31.31586211 112.93908641 -31.30332947 115.95378113 C-31.31223353 117.80472436 -31.32230779 119.65566246 -31.33374023 121.5065918 C-31.32399673 122.34049942 -31.31425323 123.17440704 -31.30421448 124.03358459 C-31.36949053 129.33453545 -32.30488679 132.37867277 -35.83203125 136.58203125 C-38.06412253 137.69807689 -39.59883881 137.91310659 -42.08203125 138.08203125 C-42.8296875 138.15421875 -43.57734375 138.22640625 -44.34765625 138.30078125 C-48.5095716 137.09670511 -50.71633354 134.28279816 -52.83203125 130.58203125 C-53.69916264 126.55629578 -53.65279321 122.62170017 -53.60839844 118.515625 C-53.61891235 117.31640411 -53.62942627 116.11718323 -53.64025879 114.88162231 C-53.6620735 111.60844725 -53.65705976 108.33673897 -53.63798428 105.06358719 C-53.62273006 101.62886871 -53.63689908 98.19424405 -53.64630127 94.75952148 C-53.65719897 88.99282391 -53.64288013 83.22658828 -53.61425781 77.45996094 C-53.58160661 70.8050214 -53.59218497 64.15118491 -53.62521625 57.49627209 C-53.65249688 51.76943403 -53.65626097 46.04292689 -53.64058423 40.31604481 C-53.6312585 36.90133919 -53.62990292 33.48715105 -53.64980316 30.07247925 C-53.66505996 26.26370927 -53.64178965 22.45705042 -53.60839844 18.6484375 C-53.62661652 16.9634465 -53.62661652 16.9634465 -53.64520264 15.24441528 C-53.54448956 9.0365932 -52.83567985 5.33634625 -48.50786209 0.76231384 C-45.99317241 -1.00877449 -43.82103691 -1.25165384 -40.80078125 -0.99609375 C-37.33793578 0.02077357 -35.35994209 2.05412041 -32.83203125 4.58203125 C-30.34440507 3.59762303 -27.8737091 2.60059992 -25.4296875 1.51171875 C-17.64738098 -1.72591262 -7.8822136 -3.94654281 0 0 Z " fill="#FAFDFE" transform="translate(694.83203125,522.41796875)"/>
<path d="M0 0 C6.00787065 5.87436241 10.49596732 13.05564418 13.8125 20.75 C13.8125 22.07 13.8125 23.39 13.8125 24.75 C-17.2075 24.75 -48.2275 24.75 -80.1875 24.75 C-78.60800952 13.69356666 -72.47463185 4.79998655 -63.765625 -2.1953125 C-42.93224906 -17.2837272 -20.330813 -14.35116212 0 0 Z " fill="#14B5EA" transform="translate(589.1875,553.25)"/>
<path d="M0 0 C4.46876455 3.07848225 8.07974831 6.73924494 9.8125 11.9375 C10.59721904 18.459673 9.59284234 23.52473711 5.8125 28.9375 C1.52960597 33.11057623 -2.56650203 34.99843152 -8.5 35.375 C-13.72267328 35.24443317 -17.28150105 33.32210995 -21.1875 29.9375 C-25.30548641 24.76361964 -26.6214495 20.70134732 -26.53515625 14.09375 C-25.69664185 8.89307642 -22.33736149 5.03127068 -18.625 1.5 C-13.0755211 -2.05735827 -6.13263086 -2.04421029 0 0 Z " fill="#FCFEFE" transform="translate(772.1875,573.0625)"/>
</svg>
